<svg width="76" height="443" viewBox="0 0 76 443" fill="none" xmlns="http://www.w3.org/2000/svg">
<path d="M9.6485 420.901L38 419.302L38 424.304L24.9415 424.837C23.8482 424.878 22.8368 424.905 21.9075 424.919C20.9645 424.919 20.0762 424.912 19.2425 424.898C18.3952 424.885 17.582 424.864 16.803 424.837C16.024 424.796 15.2587 424.748 14.507 424.693L33.08 428.445L33.08 432.996L14.507 437.014C15.2313 436.959 15.9898 436.911 16.7825 436.87C17.5752 436.829 18.402 436.802 19.263 436.789C20.124 436.761 21.0328 436.748 21.9895 436.748C22.9462 436.734 23.9438 436.747 24.9825 436.789L38 437.178L38 442.098L9.6485 440.499L9.6485 434.267L28.365 430.618L9.6485 427.133L9.6485 420.901ZM16.2905 402.631L34.1665 402.631L34.1665 396.912L38 396.912L38 414.398L34.1665 414.398L34.1665 408.043L20.124 408.043L20.124 414.193L16.2905 414.193L16.2905 402.631ZM5.3435 406.137C5.3435 405.139 5.651 404.333 6.266 403.718C6.881 403.089 7.64633 402.775 8.562 402.775C9.47767 402.775 10.2498 403.089 10.8785 403.718C11.4935 404.333 11.801 405.139 11.801 406.137C11.801 407.134 11.4935 407.947 10.8785 408.576C10.2498 409.205 9.47767 409.519 8.562 409.519C7.64633 409.519 6.881 409.205 6.266 408.576C5.651 407.947 5.3435 407.134 5.3435 406.137ZM7.045 377.945L7.619 372.533L38 372.533L38 377.33L35.4375 377.658C36.3942 378.327 37.1663 379.168 37.754 380.179C38.328 381.19 38.615 382.366 38.615 383.705C38.615 385.536 38.1367 387.053 37.18 388.256C36.2233 389.445 34.884 390.333 33.162 390.921C31.4263 391.495 29.4105 391.782 27.1145 391.782C24.9005 391.782 22.9325 391.44 21.2105 390.757C19.4885 390.074 18.1355 389.09 17.1515 387.805C16.1675 386.507 15.6755 384.969 15.6755 383.193C15.6755 382.127 15.86 381.156 16.229 380.282C16.598 379.407 17.1447 378.628 17.869 377.945L7.045 377.945ZM19.714 381.737C19.714 383.104 20.3085 384.183 21.4975 384.976C22.6728 385.755 24.552 386.145 27.135 386.145C28.9527 386.145 30.4082 385.981 31.5015 385.653C32.5812 385.325 33.3602 384.86 33.8385 384.259C34.3168 383.657 34.556 382.947 34.556 382.127C34.556 381.225 34.2895 380.432 33.7565 379.749C33.2098 379.052 32.5333 378.45 31.727 377.945L21.846 377.945C21.1763 378.45 20.657 379.017 20.288 379.646C19.9053 380.261 19.714 380.958 19.714 381.737ZM7.045 353.361L7.619 347.949L38 347.949L38 352.746L35.4375 353.074C36.3942 353.743 37.1663 354.584 37.754 355.595C38.328 356.606 38.615 357.782 38.615 359.121C38.615 360.952 38.1367 362.469 37.18 363.672C36.2233 364.861 34.884 365.749 33.162 366.337C31.4263 366.911 29.4105 367.198 27.1145 367.198C24.9005 367.198 22.9325 366.856 21.2105 366.173C19.4885 365.49 18.1355 364.506 17.1515 363.221C16.1675 361.923 15.6755 360.385 15.6755 358.609C15.6755 357.543 15.86 356.572 16.229 355.698C16.598 354.823 17.1447 354.044 17.869 353.361L7.045 353.361ZM19.714 357.153C19.714 358.52 20.3085 359.599 21.4975 360.392C22.6728 361.171 24.552 361.561 27.135 361.561C28.9527 361.561 30.4082 361.397 31.5015 361.069C32.5812 360.741 33.3602 360.276 33.8385 359.675C34.3168 359.073 34.556 358.363 34.556 357.543C34.556 356.641 34.2895 355.848 33.7565 355.165C33.2098 354.468 32.5333 353.866 31.727 353.361L21.846 353.361C21.1763 353.866 20.657 354.433 20.288 355.062C19.9053 355.677 19.714 356.374 19.714 357.153ZM7.619 331.032L31.686 331.032C32.629 331.032 33.2987 330.758 33.695 330.212C34.0913 329.651 34.2895 328.9 34.2895 327.957C34.2895 327.369 34.228 326.802 34.105 326.255C33.9683 325.708 33.8043 325.189 33.613 324.697L37.303 323.365C37.6447 324.048 37.9453 324.882 38.205 325.866C38.4783 326.836 38.615 327.963 38.615 329.248C38.615 331.612 37.9385 333.403 36.5855 334.619C35.2325 335.835 33.408 336.444 31.112 336.444L11.4525 336.444L11.4525 342.942L7.619 342.942L7.619 331.032ZM28.7955 312.167C30.1485 312.058 31.2487 311.75 32.096 311.245C32.9433 310.725 33.5652 310.062 33.9615 309.256C34.3578 308.45 34.556 307.555 34.556 306.571C34.556 305.532 34.392 304.555 34.064 303.639C33.736 302.723 33.2782 301.821 32.6905 300.933L35.786 298.678C36.6333 299.689 37.3167 300.899 37.836 302.307C38.3553 303.701 38.615 305.238 38.615 306.919C38.615 309.27 38.1298 311.251 37.1595 312.864C36.1892 314.463 34.843 315.673 33.121 316.493C31.399 317.313 29.4173 317.723 27.176 317.723C25.0167 317.723 23.0692 317.319 21.3335 316.513C19.5978 315.707 18.2243 314.545 17.213 313.028C16.188 311.511 15.6755 309.68 15.6755 307.534C15.6755 305.539 16.1128 303.817 16.9875 302.368C17.8622 300.919 19.1195 299.799 20.7595 299.006C22.3858 298.213 24.347 297.817 26.643 297.817C27.012 297.817 27.3878 297.831 27.7705 297.858C28.1532 297.872 28.4948 297.892 28.7955 297.92L28.7955 312.167ZM19.4885 307.514C19.4885 308.826 19.96 309.905 20.903 310.753C21.8323 311.586 23.3083 312.078 25.331 312.229L25.331 303.086C23.4997 303.113 22.0715 303.496 21.0465 304.234C20.0078 304.958 19.4885 306.051 19.4885 307.514ZM7.045 254.143C7.045 252.694 7.16117 251.41 7.3935 250.289C7.62583 249.168 7.94017 248.15 8.3365 247.235L11.9855 248.793C11.6848 249.517 11.4662 250.275 11.3295 251.068C11.1928 251.861 11.1245 252.653 11.1245 253.446C11.1245 254.813 11.3842 255.81 11.9035 256.439C12.4092 257.054 13.2223 257.362 14.343 257.362L17.7665 257.362L17.7665 250.187L21.641 250.781L21.641 257.362L38 257.362L38 262.753L21.641 262.753L21.641 267.53L17.7665 267.53L17.7665 262.753L14.22 262.753C12.8123 262.753 11.5755 262.411 10.5095 261.728C9.42983 261.045 8.5825 260.061 7.9675 258.776C7.3525 257.478 7.045 255.933 7.045 254.143ZM16.2905 237.616L31.3375 237.616C32.5128 237.616 33.3397 237.383 33.818 236.919C34.2963 236.454 34.5355 235.777 34.5355 234.889C34.5355 234.042 34.2827 233.215 33.777 232.409C33.2577 231.602 32.6017 230.946 31.809 230.441L16.2905 230.441L16.2905 225.029L38 225.029L38 229.744L35.335 230.031C36.401 230.81 37.2142 231.807 37.7745 233.024C38.3348 234.24 38.615 235.497 38.615 236.796C38.615 238.887 38.0273 240.451 36.852 241.49C35.663 242.515 34.0435 243.028 31.9935 243.028L16.2905 243.028L16.2905 237.616ZM7.619 208.112L31.686 208.112C32.629 208.112 33.2987 207.838 33.695 207.292C34.0913 206.731 34.2895 205.98 34.2895 205.037C34.2895 204.449 34.228 203.882 34.105 203.335C33.9683 202.788 33.8043 202.269 33.613 201.777L37.303 200.445C37.6447 201.128 37.9453 201.962 38.205 202.946C38.4783 203.916 38.615 205.043 38.615 206.328C38.615 208.692 37.9385 210.483 36.5855 211.699C35.2325 212.915 33.408 213.524 31.112 213.524L11.4525 213.524L11.4525 220.022L7.619 220.022L7.619 208.112ZM7.619 183.528L31.686 183.528C32.629 183.528 33.2987 183.254 33.695 182.708C34.0913 182.147 34.2895 181.396 34.2895 180.453C34.2895 179.865 34.228 179.298 34.105 178.751C33.9683 178.204 33.8043 177.685 33.613 177.193L37.303 175.861C37.6447 176.544 37.9453 177.378 38.205 178.362C38.4783 179.332 38.615 180.459 38.615 181.744C38.615 184.108 37.9385 185.899 36.5855 187.115C35.2325 188.331 33.408 188.94 31.112 188.94L11.4525 188.94L11.4525 195.438L7.619 195.438L7.619 183.528ZM28.9595 168.927L24.6545 168.927L24.6545 151.625L28.9595 151.625L28.9595 168.927ZM34.6175 136.43C34.6175 135.159 34.3988 134.141 33.9615 133.376C33.5105 132.597 32.8818 132.207 32.0755 132.207C31.5425 132.207 31.0915 132.337 30.7225 132.597C30.3535 132.843 30.0118 133.335 29.6975 134.073C29.3695 134.811 29.0073 135.918 28.611 137.394C28.2557 138.788 27.8183 140.011 27.299 141.063C26.766 142.102 26.0827 142.915 25.249 143.503C24.4153 144.077 23.363 144.364 22.092 144.364C20.821 144.364 19.7072 144.008 18.7505 143.298C17.7802 142.587 17.0285 141.562 16.4955 140.223C15.9488 138.87 15.6755 137.243 15.6755 135.344C15.6755 133.485 15.9215 131.859 16.4135 130.465C16.8918 129.071 17.4932 127.875 18.2175 126.877L21.518 129.091C20.9577 129.966 20.5067 130.916 20.165 131.941C19.8097 132.952 19.632 134.045 19.632 135.221C19.632 136.492 19.8165 137.421 20.1855 138.009C20.5545 138.583 21.067 138.87 21.723 138.87C22.1877 138.87 22.584 138.726 22.912 138.439C23.2263 138.139 23.5338 137.606 23.8345 136.84C24.1215 136.061 24.47 134.954 24.88 133.519C25.2627 132.112 25.7137 130.888 26.233 129.85C26.7523 128.797 27.4425 127.984 28.3035 127.41C29.1645 126.836 30.292 126.549 31.686 126.549C33.2577 126.549 34.556 127.007 35.581 127.923C36.606 128.838 37.3713 130.048 37.877 131.551C38.369 133.041 38.615 134.66 38.615 136.41C38.615 138.46 38.3212 140.25 37.7335 141.781C37.1458 143.311 36.3873 144.61 35.458 145.676L32.301 142.867C32.9707 142.02 33.5242 141.056 33.9615 139.977C34.3988 138.883 34.6175 137.701 34.6175 136.43ZM36.7905 101.371C37.3235 102.177 37.7608 103.154 38.1025 104.302C38.4442 105.45 38.615 106.694 38.615 108.033C38.615 110.685 37.9317 112.68 36.565 114.019C35.1847 115.359 33.3533 116.028 31.071 116.028L20.124 116.028L20.124 120.743L16.2905 120.743L16.2905 116.028L11.514 116.028L10.858 110.616L16.2905 110.616L16.2905 103.441L20.124 103.995L20.124 110.616L31.0505 110.616C32.1712 110.616 32.9912 110.343 33.5105 109.796C34.0298 109.25 34.2895 108.368 34.2895 107.152C34.2895 106.373 34.2007 105.662 34.023 105.02C33.8317 104.364 33.5925 103.769 33.3055 103.236L36.7905 101.371ZM32.2805 78.2012C33.1142 78.2012 33.7223 78.0782 34.105 77.8322C34.474 77.5862 34.7542 77.1899 34.9455 76.6432L38.574 77.8117C38.451 78.9734 38.164 79.9642 37.713 80.7842C37.2483 81.5906 36.5582 82.2124 35.6425 82.6497C36.6402 83.4697 37.385 84.5084 37.877 85.7657C38.369 87.0094 38.615 88.3146 38.615 89.6812C38.615 91.8952 37.9863 93.6514 36.729 94.9497C35.4717 96.2481 33.8385 96.8972 31.8295 96.8972C29.5198 96.8972 27.7432 95.9952 26.4995 94.1912C25.2422 92.3736 24.6135 89.8042 24.6135 86.4832L24.6135 83.4492L23.445 83.4492C22.1603 83.4492 21.231 83.8456 20.657 84.6382C20.0693 85.4309 19.7755 86.5721 19.7755 88.0617C19.7755 88.7587 19.8712 89.6334 20.0625 90.6857C20.2402 91.7244 20.5203 92.7972 20.903 93.9042L17.1925 95.1957C16.6732 93.8154 16.2905 92.4282 16.0445 91.0342C15.7985 89.6266 15.6755 88.3487 15.6755 87.2007C15.6755 84.1531 16.3247 81.8912 17.623 80.4152C18.9077 78.9392 20.7322 78.2012 23.0965 78.2012L32.2805 78.2012ZM34.6995 87.9182C34.6995 87.0982 34.4672 86.2714 34.0025 85.4377C33.5378 84.5904 32.8887 83.9276 32.055 83.4492L27.832 83.4492L27.832 85.5812C27.832 87.5902 28.1532 89.0457 28.7955 89.9477C29.4378 90.8361 30.3467 91.2802 31.522 91.2802C32.5333 91.2802 33.3192 90.9932 33.8795 90.4192C34.4262 89.8452 34.6995 89.0116 34.6995 87.9182ZM34.269 60.0132C34.269 59.0566 34.0913 58.1614 33.736 57.3277C33.3807 56.4804 32.9297 55.6672 32.383 54.8882L35.8475 52.4282C36.6538 53.3849 37.3167 54.5397 37.836 55.8927C38.3553 57.2457 38.615 58.6944 38.615 60.2387C38.615 62.5074 38.1435 64.4549 37.2005 66.0812C36.2438 67.6939 34.9182 68.9376 33.2235 69.8122C31.5152 70.6732 29.5335 71.1037 27.2785 71.1037C25.0508 71.1037 23.0623 70.6664 21.313 69.7917C19.55 68.9034 18.1697 67.6461 17.172 66.0197C16.1743 64.3797 15.6755 62.4254 15.6755 60.1567C15.6755 58.5987 15.901 57.1911 16.352 55.9337C16.7893 54.6627 17.4453 53.5011 18.32 52.4487L21.641 54.8472C21.0807 55.6536 20.657 56.4872 20.37 57.3482C20.0693 58.1956 19.919 59.0771 19.919 59.9927C19.919 61.5917 20.4998 62.8969 21.6615 63.9082C22.8095 64.9059 24.6818 65.4047 27.2785 65.4047C28.9868 65.4047 30.3535 65.1724 31.3785 64.7077C32.4035 64.2294 33.1415 63.5871 33.5925 62.7807C34.0435 61.9607 34.269 61.0382 34.269 60.0132ZM16.2905 26.5938L25.9665 34.6502L38 25.8147L38 32.1902L26.11 40.5542L16.2905 32.5592L16.2905 26.5938ZM7.045 40.8617L38 40.8618L38 46.2738L7.619 46.2737L7.045 40.8617Z" fill="#3D3D3D"/>
<mask id="mask0_365_2" style="mask-type:alpha" maskUnits="userSpaceOnUse" x="32" y="11" width="44" height="432">
<rect x="32" y="11" width="44" height="432" fill="#121212"/>
</mask>
<g mask="url(#mask0_365_2)">
<path d="M9.6485 420.901L38 419.302L38 424.304L24.9415 424.837C23.8482 424.878 22.8368 424.905 21.9075 424.919C20.9645 424.919 20.0762 424.912 19.2425 424.898C18.3952 424.885 17.582 424.864 16.803 424.837C16.024 424.796 15.2587 424.748 14.507 424.693L33.08 428.445L33.08 432.996L14.507 437.014C15.2313 436.959 15.9898 436.911 16.7825 436.87C17.5752 436.829 18.402 436.802 19.263 436.789C20.124 436.761 21.0328 436.748 21.9895 436.748C22.9462 436.734 23.9438 436.747 24.9825 436.789L38 437.178L38 442.098L9.6485 440.499L9.6485 434.267L28.365 430.618L9.6485 427.133L9.6485 420.901ZM16.2905 402.631L34.1665 402.631L34.1665 396.912L38 396.912L38 414.398L34.1665 414.398L34.1665 408.043L20.124 408.043L20.124 414.193L16.2905 414.193L16.2905 402.631ZM5.3435 406.137C5.3435 405.139 5.651 404.333 6.266 403.718C6.881 403.089 7.64633 402.775 8.562 402.775C9.47767 402.775 10.2498 403.089 10.8785 403.718C11.4935 404.333 11.801 405.139 11.801 406.137C11.801 407.134 11.4935 407.947 10.8785 408.576C10.2498 409.205 9.47767 409.519 8.562 409.519C7.64633 409.519 6.881 409.205 6.266 408.576C5.651 407.947 5.3435 407.134 5.3435 406.137ZM7.045 377.945L7.619 372.533L38 372.533L38 377.33L35.4375 377.658C36.3942 378.327 37.1663 379.168 37.754 380.179C38.328 381.19 38.615 382.366 38.615 383.705C38.615 385.536 38.1367 387.053 37.18 388.256C36.2233 389.445 34.884 390.333 33.162 390.921C31.4263 391.495 29.4105 391.782 27.1145 391.782C24.9005 391.782 22.9325 391.44 21.2105 390.757C19.4885 390.074 18.1355 389.09 17.1515 387.805C16.1675 386.507 15.6755 384.969 15.6755 383.193C15.6755 382.127 15.86 381.156 16.229 380.282C16.598 379.407 17.1447 378.628 17.869 377.945L7.045 377.945ZM19.714 381.737C19.714 383.104 20.3085 384.183 21.4975 384.976C22.6728 385.755 24.552 386.145 27.135 386.145C28.9527 386.145 30.4082 385.981 31.5015 385.653C32.5812 385.325 33.3602 384.86 33.8385 384.259C34.3168 383.657 34.556 382.947 34.556 382.127C34.556 381.225 34.2895 380.432 33.7565 379.749C33.2098 379.052 32.5333 378.45 31.727 377.945L21.846 377.945C21.1763 378.45 20.657 379.017 20.288 379.646C19.9053 380.261 19.714 380.958 19.714 381.737ZM7.045 353.361L7.619 347.949L38 347.949L38 352.746L35.4375 353.074C36.3942 353.743 37.1663 354.584 37.754 355.595C38.328 356.606 38.615 357.782 38.615 359.121C38.615 360.952 38.1367 362.469 37.18 363.672C36.2233 364.861 34.884 365.749 33.162 366.337C31.4263 366.911 29.4105 367.198 27.1145 367.198C24.9005 367.198 22.9325 366.856 21.2105 366.173C19.4885 365.49 18.1355 364.506 17.1515 363.221C16.1675 361.923 15.6755 360.385 15.6755 358.609C15.6755 357.543 15.86 356.572 16.229 355.698C16.598 354.823 17.1447 354.044 17.869 353.361L7.045 353.361ZM19.714 357.153C19.714 358.52 20.3085 359.599 21.4975 360.392C22.6728 361.171 24.552 361.561 27.135 361.561C28.9527 361.561 30.4082 361.397 31.5015 361.069C32.5812 360.741 33.3602 360.276 33.8385 359.675C34.3168 359.073 34.556 358.363 34.556 357.543C34.556 356.641 34.2895 355.848 33.7565 355.165C33.2098 354.468 32.5333 353.866 31.727 353.361L21.846 353.361C21.1763 353.866 20.657 354.433 20.288 355.062C19.9053 355.677 19.714 356.374 19.714 357.153ZM7.619 331.032L31.686 331.032C32.629 331.032 33.2987 330.758 33.695 330.212C34.0913 329.651 34.2895 328.9 34.2895 327.957C34.2895 327.369 34.228 326.802 34.105 326.255C33.9683 325.708 33.8043 325.189 33.613 324.697L37.303 323.365C37.6447 324.048 37.9453 324.882 38.205 325.866C38.4783 326.836 38.615 327.963 38.615 329.248C38.615 331.612 37.9385 333.403 36.5855 334.619C35.2325 335.835 33.408 336.444 31.112 336.444L11.4525 336.444L11.4525 342.942L7.619 342.942L7.619 331.032ZM28.7955 312.167C30.1485 312.058 31.2487 311.75 32.096 311.245C32.9433 310.725 33.5652 310.062 33.9615 309.256C34.3578 308.45 34.556 307.555 34.556 306.571C34.556 305.532 34.392 304.555 34.064 303.639C33.736 302.723 33.2782 301.821 32.6905 300.933L35.786 298.678C36.6333 299.689 37.3167 300.899 37.836 302.307C38.3553 303.701 38.615 305.238 38.615 306.919C38.615 309.27 38.1298 311.251 37.1595 312.864C36.1892 314.463 34.843 315.673 33.121 316.493C31.399 317.313 29.4173 317.723 27.176 317.723C25.0167 317.723 23.0692 317.319 21.3335 316.513C19.5978 315.707 18.2243 314.545 17.213 313.028C16.188 311.511 15.6755 309.68 15.6755 307.534C15.6755 305.539 16.1128 303.817 16.9875 302.368C17.8622 300.919 19.1195 299.799 20.7595 299.006C22.3858 298.213 24.347 297.817 26.643 297.817C27.012 297.817 27.3878 297.831 27.7705 297.858C28.1532 297.872 28.4948 297.892 28.7955 297.92L28.7955 312.167ZM19.4885 307.514C19.4885 308.826 19.96 309.905 20.903 310.753C21.8323 311.586 23.3083 312.078 25.331 312.229L25.331 303.086C23.4997 303.113 22.0715 303.496 21.0465 304.234C20.0078 304.958 19.4885 306.051 19.4885 307.514ZM7.045 254.143C7.045 252.694 7.16117 251.41 7.3935 250.289C7.62583 249.168 7.94017 248.15 8.3365 247.235L11.9855 248.793C11.6848 249.517 11.4662 250.275 11.3295 251.068C11.1928 251.861 11.1245 252.653 11.1245 253.446C11.1245 254.813 11.3842 255.81 11.9035 256.439C12.4092 257.054 13.2223 257.362 14.343 257.362L17.7665 257.362L17.7665 250.187L21.641 250.781L21.641 257.362L38 257.362L38 262.753L21.641 262.753L21.641 267.53L17.7665 267.53L17.7665 262.753L14.22 262.753C12.8123 262.753 11.5755 262.411 10.5095 261.728C9.42983 261.045 8.5825 260.061 7.9675 258.776C7.3525 257.478 7.045 255.933 7.045 254.143ZM16.2905 237.616L31.3375 237.616C32.5128 237.616 33.3397 237.383 33.818 236.919C34.2963 236.454 34.5355 235.777 34.5355 234.889C34.5355 234.042 34.2827 233.215 33.777 232.409C33.2577 231.602 32.6017 230.946 31.809 230.441L16.2905 230.441L16.2905 225.029L38 225.029L38 229.744L35.335 230.031C36.401 230.81 37.2142 231.807 37.7745 233.024C38.3348 234.24 38.615 235.497 38.615 236.796C38.615 238.887 38.0273 240.451 36.852 241.49C35.663 242.515 34.0435 243.028 31.9935 243.028L16.2905 243.028L16.2905 237.616ZM7.619 208.112L31.686 208.112C32.629 208.112 33.2987 207.838 33.695 207.292C34.0913 206.731 34.2895 205.98 34.2895 205.037C34.2895 204.449 34.228 203.882 34.105 203.335C33.9683 202.788 33.8043 202.269 33.613 201.777L37.303 200.445C37.6447 201.128 37.9453 201.962 38.205 202.946C38.4783 203.916 38.615 205.043 38.615 206.328C38.615 208.692 37.9385 210.483 36.5855 211.699C35.2325 212.915 33.408 213.524 31.112 213.524L11.4525 213.524L11.4525 220.022L7.619 220.022L7.619 208.112ZM7.619 183.528L31.686 183.528C32.629 183.528 33.2987 183.254 33.695 182.708C34.0913 182.147 34.2895 181.396 34.2895 180.453C34.2895 179.865 34.228 179.298 34.105 178.751C33.9683 178.204 33.8043 177.685 33.613 177.193L37.303 175.861C37.6447 176.544 37.9453 177.378 38.205 178.362C38.4783 179.332 38.615 180.459 38.615 181.744C38.615 184.108 37.9385 185.899 36.5855 187.115C35.2325 188.331 33.408 188.94 31.112 188.94L11.4525 188.94L11.4525 195.438L7.619 195.438L7.619 183.528ZM28.9595 168.927L24.6545 168.927L24.6545 151.625L28.9595 151.625L28.9595 168.927ZM34.6175 136.43C34.6175 135.159 34.3988 134.141 33.9615 133.376C33.5105 132.597 32.8818 132.207 32.0755 132.207C31.5425 132.207 31.0915 132.337 30.7225 132.597C30.3535 132.843 30.0118 133.335 29.6975 134.073C29.3695 134.811 29.0073 135.918 28.611 137.394C28.2557 138.788 27.8183 140.011 27.299 141.063C26.766 142.102 26.0827 142.915 25.249 143.503C24.4153 144.077 23.363 144.364 22.092 144.364C20.821 144.364 19.7072 144.008 18.7505 143.298C17.7802 142.587 17.0285 141.562 16.4955 140.223C15.9488 138.87 15.6755 137.243 15.6755 135.344C15.6755 133.485 15.9215 131.859 16.4135 130.465C16.8918 129.071 17.4932 127.875 18.2175 126.877L21.518 129.091C20.9577 129.966 20.5067 130.916 20.165 131.941C19.8097 132.952 19.632 134.045 19.632 135.221C19.632 136.492 19.8165 137.421 20.1855 138.009C20.5545 138.583 21.067 138.87 21.723 138.87C22.1877 138.87 22.584 138.726 22.912 138.439C23.2263 138.139 23.5338 137.606 23.8345 136.84C24.1215 136.061 24.47 134.954 24.88 133.519C25.2627 132.112 25.7137 130.888 26.233 129.85C26.7523 128.797 27.4425 127.984 28.3035 127.41C29.1645 126.836 30.292 126.549 31.686 126.549C33.2577 126.549 34.556 127.007 35.581 127.923C36.606 128.838 37.3713 130.048 37.877 131.551C38.369 133.041 38.615 134.66 38.615 136.41C38.615 138.46 38.3212 140.25 37.7335 141.781C37.1458 143.311 36.3873 144.61 35.458 145.676L32.301 142.867C32.9707 142.02 33.5242 141.056 33.9615 139.977C34.3988 138.883 34.6175 137.701 34.6175 136.43ZM36.7905 101.371C37.3235 102.177 37.7608 103.154 38.1025 104.302C38.4442 105.45 38.615 106.694 38.615 108.033C38.615 110.685 37.9317 112.68 36.565 114.019C35.1847 115.359 33.3533 116.028 31.071 116.028L20.124 116.028L20.124 120.743L16.2905 120.743L16.2905 116.028L11.514 116.028L10.858 110.616L16.2905 110.616L16.2905 103.441L20.124 103.995L20.124 110.616L31.0505 110.616C32.1712 110.616 32.9912 110.343 33.5105 109.796C34.0298 109.25 34.2895 108.368 34.2895 107.152C34.2895 106.373 34.2007 105.662 34.023 105.02C33.8317 104.364 33.5925 103.769 33.3055 103.236L36.7905 101.371ZM32.2805 78.2012C33.1142 78.2012 33.7223 78.0782 34.105 77.8322C34.474 77.5862 34.7542 77.1899 34.9455 76.6432L38.574 77.8117C38.451 78.9734 38.164 79.9642 37.713 80.7842C37.2483 81.5906 36.5582 82.2124 35.6425 82.6497C36.6402 83.4697 37.385 84.5084 37.877 85.7657C38.369 87.0094 38.615 88.3146 38.615 89.6812C38.615 91.8952 37.9863 93.6514 36.729 94.9497C35.4717 96.2481 33.8385 96.8972 31.8295 96.8972C29.5198 96.8972 27.7432 95.9952 26.4995 94.1912C25.2422 92.3736 24.6135 89.8042 24.6135 86.4832L24.6135 83.4492L23.445 83.4492C22.1603 83.4492 21.231 83.8456 20.657 84.6382C20.0693 85.4309 19.7755 86.5721 19.7755 88.0617C19.7755 88.7587 19.8712 89.6334 20.0625 90.6857C20.2402 91.7244 20.5203 92.7972 20.903 93.9042L17.1925 95.1957C16.6732 93.8154 16.2905 92.4282 16.0445 91.0342C15.7985 89.6266 15.6755 88.3487 15.6755 87.2007C15.6755 84.1531 16.3247 81.8912 17.623 80.4152C18.9077 78.9392 20.7322 78.2012 23.0965 78.2012L32.2805 78.2012ZM34.6995 87.9182C34.6995 87.0982 34.4672 86.2714 34.0025 85.4377C33.5378 84.5904 32.8887 83.9276 32.055 83.4492L27.832 83.4492L27.832 85.5812C27.832 87.5902 28.1532 89.0457 28.7955 89.9477C29.4378 90.8361 30.3467 91.2802 31.522 91.2802C32.5333 91.2802 33.3192 90.9932 33.8795 90.4192C34.4262 89.8452 34.6995 89.0116 34.6995 87.9182ZM34.269 60.0132C34.269 59.0566 34.0913 58.1614 33.736 57.3277C33.3807 56.4804 32.9297 55.6672 32.383 54.8882L35.8475 52.4282C36.6538 53.3849 37.3167 54.5397 37.836 55.8927C38.3553 57.2457 38.615 58.6944 38.615 60.2387C38.615 62.5074 38.1435 64.4549 37.2005 66.0812C36.2438 67.6939 34.9182 68.9376 33.2235 69.8122C31.5152 70.6732 29.5335 71.1037 27.2785 71.1037C25.0508 71.1037 23.0623 70.6664 21.313 69.7917C19.55 68.9034 18.1697 67.6461 17.172 66.0197C16.1743 64.3797 15.6755 62.4254 15.6755 60.1567C15.6755 58.5987 15.901 57.1911 16.352 55.9337C16.7893 54.6627 17.4453 53.5011 18.32 52.4487L21.641 54.8472C21.0807 55.6536 20.657 56.4872 20.37 57.3482C20.0693 58.1956 19.919 59.0771 19.919 59.9927C19.919 61.5917 20.4998 62.8969 21.6615 63.9082C22.8095 64.9059 24.6818 65.4047 27.2785 65.4047C28.9868 65.4047 30.3535 65.1724 31.3785 64.7077C32.4035 64.2294 33.1415 63.5871 33.5925 62.7807C34.0435 61.9607 34.269 61.0382 34.269 60.0132ZM16.2905 26.5938L25.9665 34.6502L38 25.8147L38 32.1902L26.11 40.5542L16.2905 32.5592L16.2905 26.5938ZM7.045 40.8617L38 40.8618L38 46.2738L7.619 46.2737L7.045 40.8617Z" fill="#F5F5F5"/>
</g>
</svg>
