<svg viewBox="0 0 1180 183" fill="none" xmlns="http://www.w3.org/2000/svg">
<path d="M77.76 73.72C77.76 67.2987 76.528 62.1093 74.064 58.152C71.6747 54.12 68.1653 51.1707 63.536 49.304C58.9067 47.4373 53.344 46.504 46.848 46.504H30.832V102.616H47.744C53.8667 102.616 59.1307 101.683 63.536 99.816C68.016 97.8747 71.488 94.776 73.952 90.52C76.4907 86.264 77.76 80.664 77.76 73.72ZM109.568 73.496C109.568 85.5173 106.992 95.3733 101.84 103.064C96.7627 110.68 89.632 116.317 80.448 119.976C71.264 123.56 60.6613 125.352 48.64 125.352H30.832V179H0.144V24.104H45.728C65.8133 24.104 81.456 28.1733 92.656 36.312C103.931 44.4507 109.568 56.8453 109.568 73.496ZM183.625 57.032C195.422 57.032 205.427 59.608 213.641 64.76C221.854 69.912 228.089 77.192 232.345 86.6C236.675 95.9333 238.841 106.872 238.841 119.416C238.841 132.259 236.675 143.384 232.345 152.792C228.014 162.2 221.742 169.48 213.529 174.632C205.315 179.784 195.31 182.36 183.513 182.36C171.79 182.36 161.785 179.859 153.497 174.856C145.283 169.779 139.011 162.573 134.681 153.24C130.35 143.832 128.185 132.632 128.185 119.64C128.185 107.245 130.35 96.344 134.681 86.936C139.011 77.528 145.321 70.2107 153.609 64.984C161.897 59.6827 171.902 57.032 183.625 57.032ZM183.625 79.32C175.337 79.32 169.139 82.568 165.033 89.064C161.001 95.56 158.985 105.752 158.985 119.64C158.985 133.677 161.001 143.944 165.033 150.44C169.065 156.861 175.225 160.072 183.513 160.072C191.801 160.072 197.961 156.861 201.993 150.44C206.025 143.944 208.041 133.603 208.041 119.416C208.041 105.603 206.025 95.4853 201.993 89.064C197.961 82.568 191.838 79.32 183.625 79.32ZM269.777 179V158.504H286.465V80.776H269.777V60.392H308.977L314.465 87.608C318.796 77.528 324.246 69.9493 330.817 64.872C337.388 59.72 345.638 57.144 355.569 57.144C359.377 57.144 362.737 57.4427 365.649 58.04C368.636 58.6373 371.473 59.4213 374.161 60.392L365.313 85.256C362.998 84.6587 360.796 84.2107 358.705 83.912C356.614 83.5387 354.262 83.352 351.649 83.352C343.436 83.352 336.268 86.5627 330.145 92.984C324.097 99.3307 319.393 107.955 316.033 118.856V158.504H339.665V179H269.777ZM349.185 106.648V75.176L353.217 60.392H374.161L368.897 106.648H349.185ZM505.338 172.392C500.932 175.304 495.594 177.693 489.322 179.56C483.05 181.427 476.255 182.36 468.938 182.36C454.452 182.36 443.551 178.627 436.234 171.16C428.916 163.619 425.258 153.613 425.258 141.144V81.336H399.498V60.392H425.258V34.296L454.826 30.712V60.392H494.026L491.002 81.336H454.826V141.032C454.826 147.155 456.319 151.635 459.306 154.472C462.292 157.309 467.108 158.728 473.754 158.728C478.01 158.728 481.892 158.243 485.402 157.272C488.986 156.227 492.234 154.92 495.146 153.352L505.338 172.392ZM610.866 9.87999C618.781 9.87999 625.799 10.5147 631.922 11.784C638.045 13.0533 643.607 14.7707 648.61 16.936L640.098 36.872C636.141 35.2293 631.997 34.0347 627.666 33.288C623.335 32.5413 619.005 32.168 614.674 32.168C607.207 32.168 601.757 33.5867 598.322 36.424C594.962 39.1867 593.282 43.6293 593.282 49.752V68.456H632.482L629.234 89.624H593.282V179H563.826V89.624H537.73V68.456H563.826V49.08C563.826 41.3893 565.693 34.632 569.426 28.808C573.159 22.9093 578.535 18.28 585.554 14.92C592.647 11.56 601.085 9.87999 610.866 9.87999ZM720.875 57.032C732.672 57.032 742.677 59.608 750.891 64.76C759.104 69.912 765.339 77.192 769.595 86.6C773.925 95.9333 776.091 106.872 776.091 119.416C776.091 132.259 773.925 143.384 769.595 152.792C765.264 162.2 758.992 169.48 750.779 174.632C742.565 179.784 732.56 182.36 720.763 182.36C709.04 182.36 699.035 179.859 690.747 174.856C682.533 169.779 676.261 162.573 671.931 153.24C667.6 143.832 665.435 132.632 665.435 119.64C665.435 107.245 667.6 96.344 671.931 86.936C676.261 77.528 682.571 70.2107 690.859 64.984C699.147 59.6827 709.152 57.032 720.875 57.032ZM720.875 79.32C712.587 79.32 706.389 82.568 702.283 89.064C698.251 95.56 696.235 105.752 696.235 119.64C696.235 133.677 698.251 143.944 702.283 150.44C706.315 156.861 712.475 160.072 720.763 160.072C729.051 160.072 735.211 156.861 739.243 150.44C743.275 143.944 745.291 133.603 745.291 119.416C745.291 105.603 743.275 95.4853 739.243 89.064C735.211 82.568 729.088 79.32 720.875 79.32ZM862.355 13.016V144.504C862.355 149.656 863.848 153.315 866.835 155.48C869.896 157.645 874.003 158.728 879.155 158.728C882.366 158.728 885.464 158.392 888.451 157.72C891.438 156.973 894.275 156.077 896.963 155.032L904.243 175.192C900.51 177.059 895.955 178.701 890.579 180.12C885.278 181.613 879.118 182.36 872.099 182.36C859.182 182.36 849.4 178.664 842.755 171.272C836.11 163.88 832.787 153.912 832.787 141.368V33.96H797.283V13.016H862.355ZM1008.43 60.392V158.056H1039.68V179H944.14V158.056H978.86V81.336H945.26V60.392H1008.43ZM989.276 0.583994C994.726 0.583994 999.132 2.26399 1002.49 5.62399C1005.93 8.98399 1007.64 13.1653 1007.64 18.168C1007.64 23.1707 1005.93 27.3893 1002.49 30.824C999.132 34.184 994.726 35.864 989.276 35.864C983.825 35.864 979.382 34.184 975.948 30.824C972.513 27.3893 970.796 23.1707 970.796 18.168C970.796 13.1653 972.513 8.98399 975.948 5.62399C979.382 2.26399 983.825 0.583994 989.276 0.583994ZM1123.81 57.032C1135.61 57.032 1145.61 59.608 1153.83 64.76C1162.04 69.912 1168.28 77.192 1172.53 86.6C1176.86 95.9333 1179.03 106.872 1179.03 119.416C1179.03 132.259 1176.86 143.384 1172.53 152.792C1168.2 162.2 1161.93 169.48 1153.72 174.632C1145.5 179.784 1135.5 182.36 1123.7 182.36C1111.98 182.36 1101.97 179.859 1093.68 174.856C1085.47 169.779 1079.2 162.573 1074.87 153.24C1070.54 143.832 1068.37 132.632 1068.37 119.64C1068.37 107.245 1070.54 96.344 1074.87 86.936C1079.2 77.528 1085.51 70.2107 1093.8 64.984C1102.08 59.6827 1112.09 57.032 1123.81 57.032ZM1123.81 79.32C1115.52 79.32 1109.33 82.568 1105.22 89.064C1101.19 95.56 1099.17 105.752 1099.17 119.64C1099.17 133.677 1101.19 143.944 1105.22 150.44C1109.25 156.861 1115.41 160.072 1123.7 160.072C1131.99 160.072 1138.15 156.861 1142.18 150.44C1146.21 143.944 1148.23 133.603 1148.23 119.416C1148.23 105.603 1146.21 95.4853 1142.18 89.064C1138.15 82.568 1132.03 79.32 1123.81 79.32Z" fill="#F5F5F5"/>
</svg>
